<svg width="19" height="23" viewBox="0 0 19 23" fill="none" xmlns="http://www.w3.org/2000/svg">
<path d="M12.2717 2.01879L13.2315 0.287201C13.2438 0.264986 13.2516 0.240563 13.2545 0.215326C13.2574 0.190089 13.2552 0.164532 13.2482 0.140116C13.2412 0.115699 13.2295 0.0929001 13.2137 0.0730209C13.1979 0.0531416 13.1783 0.0365713 13.1561 0.0242559C13.1112 -0.00061609 13.0583 -0.00664675 13.009 0.00749068C12.9597 0.0216281 12.918 0.0547755 12.8931 0.0996409L11.9227 1.85042C11.0947 1.48743 10.2004 1.30002 9.29632 1.30002C8.39223 1.30002 7.49796 1.48743 6.66994 1.85042L5.69946 0.0996409C5.67459 0.0547755 5.63292 0.0216281 5.5836 0.00749068C5.53429 -0.00664675 5.48138 -0.000616089 5.43652 0.0242559C5.39165 0.0491279 5.35851 0.0908039 5.34437 0.140116C5.33023 0.189427 5.33626 0.242335 5.36113 0.287201L6.32098 2.0188C5.40731 2.46917 4.63533 3.16247 4.0897 4.02265C3.54407 4.88284 3.24587 5.87667 3.22782 6.89515H15.3648C15.3468 5.87667 15.0486 4.88283 14.503 4.02265C13.9573 3.16246 13.1853 2.46916 12.2717 2.01879ZM6.49541 4.67439C6.39518 4.67439 6.29719 4.64467 6.21385 4.58898C6.13051 4.53329 6.06555 4.45414 6.02719 4.36153C5.98883 4.26893 5.9788 4.16703 5.99835 4.06872C6.01791 3.97041 6.06618 3.88011 6.13705 3.80923C6.20793 3.73835 6.29823 3.69008 6.39654 3.67053C6.49485 3.65097 6.59675 3.66101 6.68936 3.69937C6.78196 3.73773 6.86112 3.80268 6.9168 3.88603C6.97249 3.96937 7.00221 4.06736 7.00221 4.16759C7.00206 4.30196 6.94862 4.43078 6.85361 4.52579C6.7586 4.6208 6.62978 4.67424 6.49541 4.67439ZM12.0972 4.67439C11.997 4.67439 11.899 4.64467 11.8156 4.58898C11.7323 4.53329 11.6673 4.45414 11.629 4.36153C11.5906 4.26893 11.5806 4.16703 11.6001 4.06872C11.6197 3.97041 11.668 3.88011 11.7388 3.80923C11.8097 3.73835 11.9 3.69008 11.9983 3.67053C12.0966 3.65097 12.1985 3.66101 12.2911 3.69937C12.3837 3.73773 12.4629 3.80268 12.5186 3.88603C12.5743 3.96937 12.604 4.06736 12.604 4.16759C12.6038 4.30196 12.5504 4.43078 12.4554 4.52579C12.3604 4.6208 12.2316 4.67424 12.0972 4.67439ZM3.22773 16.1714C3.22773 16.5605 3.38231 16.9337 3.65745 17.2088C3.93259 17.4839 4.30576 17.6385 4.69486 17.6385H5.66846V20.6395C5.66798 20.8184 5.70281 20.9957 5.77096 21.1612C5.83911 21.3267 5.93925 21.4771 6.06563 21.6038C6.192 21.7306 6.34214 21.8311 6.50744 21.8997C6.67274 21.9683 6.84995 22.0036 7.02892 22.0036C7.20789 22.0036 7.3851 21.9683 7.5504 21.8997C7.7157 21.8311 7.86584 21.7306 7.99221 21.6038C8.11859 21.4771 8.21872 21.3267 8.28688 21.1612C8.35503 20.9957 8.38986 20.8184 8.38937 20.6395V17.6385H10.2032V20.6395C10.2027 20.8184 10.2376 20.9957 10.3057 21.1612C10.3739 21.3267 10.474 21.4771 10.6004 21.6038C10.7268 21.7306 10.8769 21.8311 11.0422 21.8997C11.2075 21.9683 11.3847 22.0036 11.5637 22.0036C11.7427 22.0036 11.9199 21.9683 12.0852 21.8997C12.2505 21.8311 12.4006 21.7306 12.527 21.6038C12.6534 21.4771 12.7535 21.3267 12.8216 21.1612C12.8898 20.9957 12.9246 20.8184 12.9241 20.6395V17.6385H13.8978C14.2869 17.6385 14.6601 17.4839 14.9352 17.2088C15.2103 16.9337 15.3649 16.5605 15.3649 16.1714V7.37525H3.22773V16.1714ZM1.36045 7.14184C0.999765 7.14225 0.653966 7.28572 0.398921 7.54076C0.143876 7.79581 0.000412596 8.14161 5.00045e-06 8.5023V14.1708C-0.000480214 14.3497 0.0343509 14.527 0.102503 14.6925C0.170655 14.858 0.270788 15.0084 0.397166 15.1351C0.523544 15.2619 0.673684 15.3624 0.838983 15.431C1.00428 15.4996 1.18149 15.5349 1.36046 15.5349C1.53943 15.5349 1.71664 15.4996 1.88194 15.431C2.04724 15.3624 2.19738 15.2619 2.32375 15.1351C2.45013 15.0084 2.55027 14.858 2.61842 14.6925C2.68657 14.527 2.7214 14.3497 2.72092 14.1708V8.5023C2.72051 8.14161 2.57704 7.79581 2.322 7.54076C2.06695 7.28571 1.72115 7.14225 1.36045 7.14184ZM17.2322 7.14184C16.8715 7.14225 16.5257 7.28571 16.2706 7.54076C16.0156 7.79581 15.8721 8.14161 15.8717 8.5023V14.1708C15.8712 14.3497 15.906 14.527 15.9742 14.6925C16.0423 14.858 16.1425 15.0084 16.2689 15.1351C16.3952 15.2619 16.5454 15.3624 16.7107 15.431C16.876 15.4996 17.0532 15.5349 17.2321 15.5349C17.4111 15.5349 17.5883 15.4996 17.7536 15.431C17.9189 15.3624 18.0691 15.2619 18.1954 15.1351C18.3218 15.0084 18.422 14.858 18.4901 14.6925C18.5583 14.527 18.5931 14.3497 18.5926 14.1708V8.5023C18.5922 8.14161 18.4487 7.79581 18.1937 7.54076C17.9386 7.28572 17.5928 7.14225 17.2322 7.14184Z" fill="white"/>
</svg>
