<svg width="512" height="512" viewBox="0 0 512 512" fill="none" xmlns="http://www.w3.org/2000/svg">
<path d="M209.286 385.836C111.935 385.836 32.7344 306.635 32.7344 209.284C32.7344 111.934 111.935 32.7327 209.286 32.7327C306.637 32.7327 385.838 111.934 385.838 209.284C385.838 306.635 306.637 385.836 209.286 385.836ZM209.286 68.043C131.409 68.043 68.0447 131.407 68.0447 209.284C68.0447 287.161 131.409 350.526 209.286 350.526C287.163 350.526 350.527 287.161 350.527 209.284C350.527 131.407 287.181 68.043 209.286 68.043Z" fill="#FF7268"/>
<path d="M461.613 479.267C459.294 479.27 456.997 478.814 454.855 477.926C452.713 477.038 450.768 475.736 449.13 474.094L313.291 338.255C311.652 336.616 310.352 334.67 309.465 332.528C308.578 330.387 308.121 328.091 308.121 325.773C308.121 323.455 308.578 321.159 309.465 319.018C310.352 316.876 311.652 314.93 313.291 313.291C314.931 311.652 316.877 310.351 319.018 309.464C321.16 308.577 323.455 308.121 325.774 308.121C328.092 308.121 330.387 308.577 332.529 309.464C334.671 310.351 336.617 311.652 338.256 313.291L474.095 449.13C476.572 451.596 478.26 454.742 478.946 458.169C479.632 461.596 479.284 465.15 477.947 468.379C476.609 471.608 474.343 474.367 471.434 476.305C468.526 478.244 465.108 479.275 461.613 479.267Z" fill="#FF7268"/>
</svg>
