<svg width="52" height="52" viewBox="0 0 52 52" fill="none" xmlns="http://www.w3.org/2000/svg">
<path d="M25.6763 0.000199981C23.3615 0.00660998 21.0582 0.32637 18.8291 0.95075L20.0697 3.94742C24.8879 2.67165 29.9924 3.0195 34.5931 4.93715C39.1937 6.85483 43.0341 10.2353 45.5199 14.5555C48.0056 18.8758 48.9982 23.8949 48.344 28.8361C47.6897 33.7773 45.4251 38.3651 41.9007 41.8895C38.3762 45.414 33.7884 47.6786 28.8472 48.3328C23.906 48.9871 18.8869 47.9945 14.5667 45.5087C10.2464 43.023 6.86587 39.1826 4.94825 34.5819C3.0306 29.9812 2.68275 24.8768 3.95852 20.0585L0.961849 18.8018C-0.500541 24.0041 -0.291041 29.5344 1.56073 34.6111C3.4125 39.6878 6.81287 44.0542 11.2813 47.0931C15.7498 50.1321 21.0603 51.6899 26.4622 51.5464C31.8642 51.403 37.0845 49.5654 41.3853 46.2936C45.6862 43.0217 48.85 38.481 50.4296 33.3131C52.0093 28.1452 51.9249 22.6116 50.1884 17.4943C48.452 12.377 45.1512 7.93493 40.7526 4.79567C36.3541 1.65644 31.0802 -0.02108 25.6763 0.000199981Z" fill="url(#paint0_linear_129_8)"/>
<path d="M8.67906 22.0715C7.87496 25.7458 8.28186 29.5817 9.83906 33.0054C11.3963 36.4291 14.02 39.2568 17.3178 41.0654C20.6156 42.874 24.4104 43.5664 28.1344 43.0391C31.8585 42.5117 35.3118 40.7929 37.9778 38.1397C40.6438 35.4866 42.3792 32.0417 42.9246 28.3202C43.4699 24.5987 42.7959 20.8007 41.0032 17.4941C39.2105 14.1876 36.3956 11.5503 32.9794 9.97663C29.5633 8.40293 25.7294 7.97743 22.0513 8.76383L23.0502 11.2771C26.1795 10.6912 29.4143 11.124 32.2795 12.5119C35.1448 13.8998 37.4896 16.1698 38.9697 18.9885C40.4499 21.8072 40.9874 25.0262 40.5033 28.1729C40.0193 31.3196 38.5392 34.2282 36.2803 36.4717C34.0214 38.7153 31.1028 40.1756 27.9529 40.6382C24.803 41.1008 21.5877 40.5414 18.7792 39.0421C15.9706 37.5428 13.7167 35.1826 12.3483 32.3079C10.9799 29.4333 10.5691 26.1957 11.1763 23.0704L8.67906 22.0715Z" fill="url(#paint1_linear_129_8)"/>
<path d="M25.6769 32.3666C24.062 32.3427 22.5123 31.7251 21.3237 30.6315C20.1351 29.538 19.3907 28.0451 19.2325 26.4377L16.6064 25.3422V25.7772C16.6065 27.5944 17.1467 29.3705 18.1583 30.8801C19.17 32.3897 20.6074 33.5645 22.2882 34.2554C23.9689 34.9463 25.817 35.1222 27.5979 34.7605C29.3788 34.3989 31.012 33.5162 32.2901 32.2244C33.5682 30.9327 34.4336 29.2902 34.7763 27.5056C35.119 25.721 34.9237 23.8748 34.215 22.2015C33.5063 20.5282 32.3163 19.1033 30.796 18.1077C29.2758 17.1121 27.494 16.5908 25.6769 16.6099H25.2903L26.3697 19.3327C27.98 19.5769 29.4418 20.4116 30.4704 21.6744C31.4991 22.9371 32.021 24.5375 31.9345 26.1639C31.8481 27.7902 31.1595 29.3263 30.0028 30.4728C28.8461 31.6194 27.304 32.2945 25.6769 32.3666Z" fill="url(#paint2_linear_129_8)"/>
<path d="M9.88785 18.2695C10.0366 18.4213 10.2393 18.5081 10.4518 18.5111H16.3323L24.984 27.1628C25.2874 27.4683 25.6997 27.6408 26.1302 27.6423C26.5608 27.6438 26.9743 27.4742 27.2798 27.1709C27.5853 26.8675 27.7578 26.4552 27.7593 26.0246C27.7608 25.5941 27.5913 25.1805 27.2879 24.875L18.4751 16.1106V10.4878C18.4721 10.2753 18.3852 10.0726 18.2334 9.92394L9.22725 0.917855C9.11465 0.807455 8.97216 0.732535 8.81736 0.702375C8.66266 0.672215 8.50235 0.688135 8.35655 0.748175C8.21075 0.808215 8.08586 0.909725 7.99716 1.04012C7.90846 1.17052 7.86005 1.32407 7.85785 1.48174V7.92614H1.51006C1.3524 7.92844 1.19883 7.97685 1.06844 8.06555C0.938045 8.15415 0.836535 8.27914 0.776495 8.42494C0.716455 8.57074 0.700535 8.73095 0.730695 8.88575C0.760855 9.04055 0.835775 9.18304 0.946165 9.29564L9.88785 18.2695Z" fill="url(#paint3_linear_129_8)"/>
<defs>
<linearGradient id="paint0_linear_129_8" x1="-3.32422" y1="25.7773" x2="55" y2="29" gradientUnits="userSpaceOnUse">
<stop stop-color="#FF7A69"/>
<stop offset="1" stop-color="#FFA36C"/>
</linearGradient>
<linearGradient id="paint1_linear_129_8" x1="6.03044" y1="25.7948" x2="45.4358" y2="27.9721" gradientUnits="userSpaceOnUse">
<stop stop-color="#FF7A69"/>
<stop offset="1" stop-color="#FFA36C"/>
</linearGradient>
<linearGradient id="paint2_linear_129_8" x1="15.4243" y1="25.7765" x2="36.1658" y2="26.9225" gradientUnits="userSpaceOnUse">
<stop stop-color="#FF7A69"/>
<stop offset="1" stop-color="#FFA36C"/>
</linearGradient>
<linearGradient id="paint3_linear_129_8" x1="-1.0279" y1="14.1647" x2="29.5654" y2="15.8607" gradientUnits="userSpaceOnUse">
<stop stop-color="#FF7A69"/>
<stop offset="1" stop-color="#FFA36C"/>
</linearGradient>
</defs>
</svg>
