<svg width="12" height="12" viewBox="0 0 12 12" fill="none" xmlns="http://www.w3.org/2000/svg">
<path d="M11.0225 0.112459L3.71026 0C3.51667 0.000387488 3.33331 0.076837 3.19968 0.212884C3.06605 0.348931 2.99284 0.533689 2.99582 0.727365C2.9988 0.921042 3.07773 1.10813 3.21561 1.24836C3.35348 1.38858 3.53928 1.47071 3.73298 1.47705L9.26202 1.56209L0.218163 10.606C0.0817716 10.7424 0.00684021 10.9291 0.00985309 11.125C0.012866 11.3209 0.0935763 11.5099 0.234229 11.6506C0.374881 11.7912 0.563954 11.8719 0.759853 11.875C0.955753 11.878 1.14243 11.803 1.27883 11.6667L10.3227 2.62276L10.4078 8.15179C10.4076 8.24982 10.4269 8.34753 10.4647 8.43919C10.5024 8.53084 10.5578 8.61462 10.6276 8.68563C10.6975 8.75664 10.7803 8.81345 10.8713 8.85277C10.9624 8.89208 11.0598 8.91312 11.1578 8.91463C11.2559 8.91614 11.3527 8.8981 11.4426 8.86156C11.5325 8.82503 11.6136 8.77073 11.6813 8.70183C11.7489 8.63294 11.8018 8.55083 11.8367 8.46029C11.8717 8.36975 11.888 8.2726 11.8848 8.17451L11.7724 0.862346C11.7693 0.666484 11.6886 0.477458 11.548 0.336833C11.4074 0.196209 11.2183 0.115501 11.0225 0.112459Z" fill="#FDFDFD"/>
</svg>
