<svg width="512" height="512" viewBox="0 0 512 512" fill="none" xmlns="http://www.w3.org/2000/svg">
<path d="M398.573 374.857C398.573 377.333 397.62 379.524 395.715 381.428L381.43 395.714C379.525 397.619 377.334 398.571 374.858 398.571C372.382 398.571 370.192 397.619 368.287 395.714L256.001 283.428L143.715 395.714C141.811 397.619 139.62 398.571 137.144 398.571C134.668 398.571 132.477 397.619 130.573 395.714L116.287 381.428C114.382 379.524 113.43 377.333 113.43 374.857C113.43 372.381 114.382 370.19 116.287 368.286L249.43 235.143C251.334 233.238 253.525 232.286 256.001 232.286C258.477 232.286 260.668 233.238 262.573 235.143L395.715 368.286C397.62 370.19 398.573 372.381 398.573 374.857ZM398.573 265.143C398.573 267.619 397.62 269.809 395.715 271.714L381.43 286C379.525 287.905 377.334 288.857 374.858 288.857C372.382 288.857 370.192 287.905 368.287 286L256.001 173.714L143.715 286C141.811 287.905 139.62 288.857 137.144 288.857C134.668 288.857 132.477 287.905 130.573 286L116.287 271.714C114.382 269.809 113.43 267.619 113.43 265.143C113.43 262.667 114.382 260.476 116.287 258.571L249.43 125.428C251.334 123.524 253.525 122.571 256.001 122.571C258.477 122.571 260.668 123.524 262.573 125.428L395.715 258.571C397.62 260.476 398.573 262.667 398.573 265.143Z" fill="black"/>
</svg>
