<svg width="51" height="51" viewBox="0 0 51 51" fill="none" xmlns="http://www.w3.org/2000/svg">
<path d="M25.4607 0.101562C20.4449 0.101562 15.5418 1.58891 11.3714 4.37551C7.20094 7.16212 3.95047 11.1228 2.03102 15.7568C0.111574 20.3908 -0.390641 25.4898 0.587885 30.4092C1.56641 35.3286 3.98173 39.8473 7.5284 43.394C11.0751 46.9407 15.5938 49.356 20.5132 50.3345C25.4326 51.313 30.5316 50.8108 35.1656 48.8914C39.7996 46.9719 43.7603 43.7215 46.5469 39.551C49.3335 35.3806 50.8208 30.4774 50.8208 25.4617C50.8134 18.738 48.1392 12.2919 43.3849 7.53752C38.6305 2.78318 32.1844 0.108946 25.4607 0.101562ZM47.6863 32.5625H35.9826C36.8313 27.8667 36.8313 23.0567 35.9826 18.3609H47.6863C49.1605 22.98 49.1605 27.9434 47.6863 32.5625ZM25.4607 48.793C25.328 48.7929 25.1967 48.7652 25.0753 48.7115C24.9539 48.6577 24.845 48.5793 24.7557 48.4811C21.294 44.7531 18.791 39.9296 17.4494 34.5913H33.472C32.1304 39.9296 29.6274 44.7531 26.1657 48.4811C26.0764 48.5793 25.9675 48.6577 25.8461 48.7115C25.7247 48.7652 25.5935 48.7929 25.4607 48.793ZM17.0031 32.5625C16.1071 27.871 16.1071 23.0523 17.0031 18.3609H33.9183C34.8144 23.0523 34.8144 27.871 33.9183 32.5625H17.0031ZM25.4607 2.13037C25.5935 2.13043 25.7247 2.1582 25.8461 2.21191C25.9675 2.26563 26.0764 2.3441 26.1657 2.4423C29.6274 6.17024 32.1304 11.0064 33.472 16.3321H17.4494C18.791 11.0064 21.294 6.17024 24.7557 2.4423C24.845 2.3441 24.9539 2.26563 25.0753 2.21191C25.1967 2.1582 25.328 2.13043 25.4607 2.13037ZM46.9306 16.3321H35.5566C34.3114 11.0749 32.0061 6.259 28.7956 2.36876C32.7609 2.94911 36.5107 4.53781 39.6861 6.98271C42.8614 9.42761 45.3559 12.6468 46.9306 16.3321ZM22.1259 2.36876C18.9229 6.259 16.61 11.0749 15.3648 16.3321H3.99084C5.5655 12.6468 8.05996 9.42761 11.2353 6.98271C14.4107 4.53781 18.1606 2.94911 22.1259 2.36876ZM3.23511 18.3609H14.9388C14.0901 23.0567 14.0901 27.8667 14.9388 32.5625H3.23511C1.76087 27.9434 1.76087 22.98 3.23511 18.3609ZM3.99591 34.5913H15.3648C16.61 39.8485 18.9153 44.6644 22.1259 48.5546C18.1606 47.9743 14.4107 46.3856 11.2353 43.9407C8.05996 41.4958 5.5655 38.2765 3.99084 34.5913H3.99591ZM28.8006 48.5546C32.0036 44.6644 34.3165 39.8485 35.5616 34.5913H46.9356C45.3605 38.2772 42.8653 41.4969 39.689 43.9418C36.5127 46.3867 32.7618 47.9751 28.7956 48.5546H28.8006Z" fill="url(#paint0_linear_128_7)"/>
<defs>
<linearGradient id="paint0_linear_128_7" x1="0.100586" y1="0.101562" x2="50.8208" y2="0.101562" gradientUnits="userSpaceOnUse">
<stop stop-color="#FF7369"/>
<stop offset="1" stop-color="#FFB06D"/>
</linearGradient>
</defs>
</svg>
