<svg width="320" height="369" viewBox="0 0 320 369" fill="none" xmlns="http://www.w3.org/2000/svg">
<path d="M261.334 112.96C261.974 107.84 261.334 107.307 256.427 107.307H66.0271C60.2671 107.307 60.2671 107.307 60.2671 112.96V280C60.3791 284.593 62.3042 288.955 65.622 292.133C68.9398 295.311 73.3804 297.046 77.9738 296.96H93.4405C96.1071 296.96 97.4938 298.027 97.3871 300.694V348.054C97.3871 358.72 101.654 365.44 111.147 367.36C117.386 368.533 123.788 368.533 130.027 367.36C133.526 366.18 136.608 364.009 138.899 361.113C141.19 358.216 142.591 354.717 142.934 351.04V301.227C142.934 297.92 144.107 296.854 147.307 296.854H174.934C180.587 296.854 180.8 296.854 180.8 302.614V350.294C180.587 354.525 182.006 358.677 184.765 361.893C187.524 365.108 191.412 367.142 195.627 367.574C200.481 368.161 205.387 368.161 210.24 367.574C212.166 367.353 214.04 366.812 215.787 365.974C219.185 364.466 222.033 361.946 223.943 358.757C225.852 355.568 226.729 351.867 226.454 348.16V301.12C226.454 296.747 226.454 296.534 231.147 296.534H245.334C249.414 296.205 253.249 294.456 256.173 291.591C259.096 288.726 260.923 284.926 261.334 280.854V121.707C261.178 118.793 261.178 115.874 261.334 112.96ZM64.8538 95.7869H256.854C261.547 95.7869 261.974 95.2536 260.374 90.8802C252.206 67.344 236.003 47.44 214.614 34.6669C211.2 32.6402 210.88 31.1469 213.12 27.7336L220.587 16.3202C222.827 12.6935 225.174 9.06688 227.307 5.65355C227.584 5.29821 227.782 4.88852 227.889 4.45127C227.997 4.01402 228.01 3.55904 227.93 3.11607C227.849 2.6731 227.676 2.25211 227.422 1.88062C227.168 1.50913 226.838 1.1955 226.454 0.960217C224.534 -0.319783 223.04 0.960216 221.76 2.02688C221.142 2.74786 220.606 3.53485 220.16 4.37355C215.147 11.6269 211.094 19.5202 205.867 26.6669C205.647 27.1187 205.333 27.5183 204.946 27.8386C204.559 28.1589 204.107 28.3926 203.622 28.524C203.137 28.6553 202.63 28.6813 202.134 28.6002C201.638 28.519 201.165 28.3327 200.747 28.0536C197.507 26.4618 194.156 25.1072 190.72 24.0002C167.599 17.2118 142.86 18.4525 120.534 27.5202C120.125 27.7575 119.672 27.9073 119.202 27.9603C118.733 28.0132 118.257 27.968 117.806 27.8277C117.355 27.6873 116.937 27.4547 116.581 27.1448C116.224 26.8348 115.936 26.4541 115.734 26.0269C113.494 22.2935 111.04 18.5602 108.694 15.3602L100.374 2.45355C100.238 2.02349 100.009 1.62837 99.7045 1.29589C99.3997 0.963413 99.0259 0.701623 98.6092 0.528861C98.1926 0.356099 97.7432 0.276547 97.2925 0.295783C96.8419 0.315019 96.4009 0.432575 96.0005 0.640215C95.5727 0.813654 95.1928 1.08739 94.8929 1.43836C94.593 1.78932 94.3819 2.20723 94.2774 2.65686C94.1728 3.10649 94.1778 3.57467 94.2921 4.02194C94.4063 4.46921 94.6264 4.88247 94.9338 5.22688C95.5738 6.40021 96.1071 7.57355 96.7471 8.64022C100.694 14.8269 104.747 20.9069 108.694 26.9869C111.04 30.7202 110.827 32.3202 107.307 34.2402C98.5755 39.2281 90.6314 45.4828 83.7338 52.8002C73.5752 63.6194 65.8629 76.4974 61.1204 90.5602C59.2004 95.4669 59.5205 95.7869 64.8538 95.7869ZM202.134 53.1202C204.897 53.3183 207.497 54.5058 209.456 56.4648C211.415 58.4239 212.602 61.0234 212.8 63.7869C212.581 66.5427 211.387 69.1301 209.432 71.0849C207.477 73.0397 204.89 74.234 202.134 74.4535C199.305 74.4535 196.592 73.3297 194.591 71.3294C192.591 69.329 191.467 66.6159 191.467 63.7869C191.628 60.9087 192.873 58.1981 194.95 56.1996C197.028 54.2012 199.785 53.0629 202.667 53.0136L202.134 53.1202ZM117.334 54.5069C119.955 54.7969 122.375 56.0475 124.129 58.0173C125.882 59.9872 126.843 62.5366 126.827 65.1735C126.838 67.8438 125.847 70.421 124.05 72.3959C122.252 74.3709 119.78 75.5999 117.12 75.8402C114.291 75.8402 111.578 74.7164 109.578 72.716C107.578 70.7156 106.454 68.0025 106.454 65.1735C106.454 63.7546 106.736 62.35 107.286 61.0417C107.835 59.7335 108.64 58.548 109.653 57.5546C110.666 56.5613 111.867 55.7801 113.186 55.2568C114.505 54.7334 115.915 54.4785 117.334 54.5069ZM319.147 163.947V133.867C319.232 130.578 318.347 127.338 316.602 124.549C314.857 121.761 312.329 119.548 309.334 118.187C304.257 116.029 298.709 115.221 293.227 115.84C290.647 115.647 288.056 116.015 285.632 116.918C283.207 117.822 281.007 119.24 279.183 121.074C277.359 122.908 275.953 125.116 275.063 127.546C274.173 129.975 273.82 132.568 274.027 135.147V234.987C273.856 238.228 274.607 241.451 276.193 244.283C277.779 247.115 280.134 249.439 282.987 250.987C288.631 253.667 294.98 254.488 301.12 253.334C302.934 253.334 305.067 253.867 306.667 253.334C310.507 251.805 313.784 249.132 316.054 245.679C318.325 242.226 319.479 238.158 319.36 234.027C319.04 210.56 319.147 187.307 319.147 163.947ZM28.4805 115.84H20.1605C17.4389 115.789 14.7381 116.323 12.2411 117.407C9.74413 118.491 7.5094 120.099 5.68844 122.122C3.86748 124.145 2.50287 126.537 1.68711 129.133C0.871354 131.73 0.623534 134.472 0.960455 137.174C1.11996 140.158 1.11996 143.149 0.960455 146.134V235.734C0.91538 238.959 1.80888 242.128 3.53221 244.855C5.25555 247.582 7.73441 249.75 10.6671 251.094C16.5612 253.832 23.1759 254.617 29.5471 253.334C31.9438 253.225 34.2948 252.64 36.4622 251.611C38.6296 250.582 40.5699 249.131 42.1694 247.343C43.7688 245.555 44.9952 243.466 45.7767 241.197C46.5582 238.929 46.8791 236.527 46.7205 234.134V214.72C46.7205 187.947 46.0805 161.387 46.7205 134.187C46.6928 129.348 44.7656 124.714 41.3539 121.282C37.9422 117.85 33.3191 115.896 28.4805 115.84Z" fill="white"/>
</svg>
