<svg width="52" height="53" viewBox="0 0 52 53" fill="none" xmlns="http://www.w3.org/2000/svg">
<path d="M47.8725 34.625L42.8675 31.05C43.6925 28.08 43.7475 24.8625 42.8675 21.645L47.8725 18.125L43.885 11.25L38.3025 13.78C36.13 11.58 33.38 9.875 30.1625 9.0775L29.6125 3H21.6375L21.0875 9.0775C17.87 9.875 15.12 11.58 12.9475 13.78L7.36497 11.25L3.37747 18.125L8.38247 21.645C7.50247 24.8625 7.55747 28.08 8.38247 31.05L3.37747 34.625L7.36497 41.5L12.9475 38.9425C15.12 41.115 17.87 42.765 21.0875 43.6175L21.6375 49.75H29.6125L30.1625 43.6175C33.38 42.765 36.13 41.115 38.3025 38.9425L43.885 41.5L47.8725 34.625ZM31.125 0.25C31.8675 0.25 32.5 0.8 32.5 1.515L32.995 7.125C35.085 7.895 36.955 9.0225 38.6325 10.37L43.72 7.9775C44.3525 7.6475 45.15 7.8675 45.535 8.5L51.035 18.125C51.42 18.7025 51.2 19.5 50.595 19.9125L46.0025 23.13C46.36 25.33 46.3325 27.5025 46.0025 29.62L50.595 32.8375C51.2 33.25 51.42 34.0475 51.035 34.625L45.535 44.25C45.15 44.8275 44.3525 45.0475 43.72 44.7175L38.6325 42.3525C36.955 43.7 35.085 44.8 32.995 45.625L32.5 51.125C32.5 51.9225 31.8675 52.5 31.125 52.5H20.125C19.7603 52.5 19.4106 52.3551 19.1527 52.0973C18.8948 51.8394 18.75 51.4897 18.75 51.125L18.255 45.625C16.165 44.8 14.295 43.7 12.6175 42.3525L7.52997 44.7175C6.89747 45.0475 6.09997 44.8275 5.71497 44.25L0.214972 34.625C-0.170028 34.0475 0.0499716 33.25 0.654972 32.8375L5.24747 29.62C4.91747 27.5025 4.88997 25.33 5.24747 23.13L0.654972 19.9125C0.0499716 19.5 -0.170028 18.7025 0.214972 18.125L5.71497 8.5C6.09997 7.8675 6.89747 7.6475 7.52997 7.9775L12.6175 10.37C14.295 9.0225 16.165 7.895 18.255 7.125L18.75 1.515C18.75 0.8 19.3825 0.25 20.125 0.25H31.125ZM25.625 16.75C28.1777 16.75 30.6258 17.7641 32.4309 19.5691C34.2359 21.3741 35.25 23.8223 35.25 26.375C35.25 28.9277 34.2359 31.3759 32.4309 33.1809C30.6258 34.9859 28.1777 36 25.625 36C23.0723 36 20.6241 34.9859 18.8191 33.1809C17.014 31.3759 16 28.9277 16 26.375C16 23.8223 17.014 21.3741 18.8191 19.5691C20.6241 17.7641 23.0723 16.75 25.625 16.75ZM25.625 19.5C23.8016 19.5 22.0529 20.2243 20.7636 21.5136C19.4743 22.803 18.75 24.5516 18.75 26.375C18.75 28.1984 19.4743 29.947 20.7636 31.2364C22.0529 32.5257 23.8016 33.25 25.625 33.25C27.4483 33.25 29.197 32.5257 30.4863 31.2364C31.7756 29.947 32.5 28.1984 32.5 26.375C32.5 24.5516 31.7756 22.803 30.4863 21.5136C29.197 20.2243 27.4483 19.5 25.625 19.5Z" fill="url(#paint0_linear_129_3)"/>
<defs>
<linearGradient id="paint0_linear_129_3" x1="-7.5" y1="26" x2="61" y2="26" gradientUnits="userSpaceOnUse">
<stop offset="0.0340232" stop-color="#FF7A69"/>
<stop offset="1" stop-color="#FFA36C"/>
</linearGradient>
</defs>
</svg>
