<svg width="41" height="42" viewBox="0 0 41 42" fill="none" xmlns="http://www.w3.org/2000/svg">
<path d="M3.36109 31.0912C2.39582 30.6372 1.57977 29.9177 1.00842 29.017C0.437065 28.1162 0.134032 27.0713 0.134767 26.0046V16.0762C0.134767 14.5865 0.726541 13.1579 1.77991 12.1045C2.83328 11.0511 4.26195 10.4594 5.75163 10.4594H15.5093C17.2909 10.4594 19.0614 10.1628 20.7442 9.57862C24.9209 7.99467 29.2638 5.69849 32.5171 3.01363L34.4695 1.40047C34.8046 1.15753 35.2002 1.01186 35.6128 0.979525C36.0254 0.94719 36.4389 1.02945 36.8078 1.21722C37.1766 1.405 37.4864 1.691 37.7029 2.04367C37.9195 2.39634 38.0345 2.80198 38.0351 3.21584V18.3072C38.6681 18.4323 39.238 18.7731 39.6477 19.2715C40.0573 19.77 40.2813 20.3952 40.2813 21.0404C40.2813 21.6856 40.0573 22.3108 39.6477 22.8093C39.238 23.3077 38.6681 23.6486 38.0351 23.7736V38.8672C38.0335 39.2809 37.9179 39.6862 37.7008 40.0384C37.4838 40.3906 37.1739 40.6761 36.805 40.8636C36.4362 41.051 36.0228 41.1331 35.6104 41.1007C35.1979 41.0684 34.8024 40.9229 34.4673 40.6803L32.5171 39.0672C29.2683 36.3823 24.9591 34.0929 20.7756 32.5718C19.0941 31.9856 17.326 31.6864 15.5452 31.6866C14.1769 31.6214 12.7031 31.6214 12.7031 31.6214V36.4452C12.6654 37.659 12.1568 38.8104 11.2849 39.6556C10.4131 40.5009 9.2464 40.9735 8.03208 40.9735C6.81775 40.9735 5.65111 40.5009 4.77924 39.6556C3.90737 38.8104 3.39874 37.659 3.36109 36.4452V31.0912ZM5.60784 31.6214V36.4452C5.60784 37.0882 5.86325 37.7048 6.31788 38.1594C6.77251 38.614 7.38913 38.8694 8.03208 38.8694C8.67502 38.8694 9.29164 38.614 9.74627 38.1594C10.2009 37.7048 10.4563 37.0882 10.4563 36.4452V31.6214H5.60784ZM19.0883 29.6398L19.4074 29.7297C24.7328 31.2218 29.6868 33.8125 33.9505 37.3349L35.7884 38.856V3.22483L33.946 4.74587C29.6855 8.26364 24.7351 10.8498 19.4141 12.3376L19.0883 12.4298V29.6398ZM12.7031 29.3747H16.8416V12.7061H5.75163C4.85782 12.7061 4.00062 13.0612 3.3686 13.6932C2.73658 14.3252 2.38151 15.1824 2.38151 16.0762V26.0046C2.38151 26.898 2.73627 27.7549 3.3678 28.3868C3.99934 29.0188 4.85596 29.3741 5.74938 29.3747H12.7031Z" fill="url(#paint0_linear_128_11)"/>
<defs>
<linearGradient id="paint0_linear_128_11" x1="-5.5" y1="21" x2="46" y2="22" gradientUnits="userSpaceOnUse">
<stop stop-color="#FF7369"/>
<stop offset="1" stop-color="#FFAD6D"/>
</linearGradient>
</defs>
</svg>
