<svg width="70" height="71" viewBox="0 0 70 71" fill="none" xmlns="http://www.w3.org/2000/svg">
<path d="M35 11.9902C32.2926 11.9902 29.6961 13.0658 27.7816 14.9802C25.8672 16.8946 24.7917 19.4911 24.7917 22.1986C24.7917 24.906 25.8672 27.5025 27.7816 29.417C29.6961 31.3314 32.2926 32.4069 35 32.4069C37.7074 32.4069 40.3039 31.3314 42.2184 29.417C44.1328 27.5025 45.2083 24.906 45.2083 22.1986C45.2083 19.4911 44.1328 16.8946 42.2184 14.9802C40.3039 13.0658 37.7074 11.9902 35 11.9902ZM13.125 20.7402C11.1911 20.7402 9.33647 21.5085 7.96901 22.8759C6.60156 24.2434 5.83333 26.098 5.83333 28.0319C5.83333 28.9895 6.02194 29.9376 6.38838 30.8223C6.75482 31.707 7.29192 32.5108 7.96901 33.1879C9.33647 34.5553 11.1911 35.3236 13.125 35.3236C14.0826 35.3236 15.0307 35.135 15.9154 34.7685C16.8001 34.4021 17.6039 33.865 18.281 33.1879C18.9581 32.5108 19.4952 31.707 19.8616 30.8223C20.2281 29.9376 20.4167 28.9895 20.4167 28.0319C20.4167 27.0743 20.2281 26.1262 19.8616 25.2415C19.4952 24.3568 18.9581 23.553 18.281 22.8759C17.6039 22.1988 16.8001 21.6617 15.9154 21.2953C15.0307 20.9288 14.0826 20.7402 13.125 20.7402ZM56.875 20.7402C54.9411 20.7402 53.0865 21.5085 51.719 22.8759C50.3516 24.2434 49.5833 26.098 49.5833 28.0319C49.5833 28.9895 49.7719 29.9376 50.1384 30.8223C50.5048 31.707 51.0419 32.5108 51.719 33.1879C53.0865 34.5553 54.9411 35.3236 56.875 35.3236C57.8326 35.3236 58.7807 35.135 59.6654 34.7685C60.5501 34.4021 61.3539 33.865 62.031 33.1879C62.7081 32.5108 63.2452 31.707 63.6116 30.8223C63.9781 29.9376 64.1667 28.9895 64.1667 28.0319C64.1667 26.098 63.3984 24.2434 62.031 22.8759C60.6635 21.5085 58.8089 20.7402 56.875 20.7402ZM35 38.2402C28.1867 38.2402 14.5833 41.6615 14.5833 48.4486V55.7402C14.5833 57.3502 15.89 58.6569 17.5 58.6569H52.5C54.11 58.6569 55.4167 57.3502 55.4167 55.7402V48.4486C55.4167 41.6615 41.8133 38.2402 35 38.2402ZM11.3704 41.3107C6.75919 42.0224 0 45.2084 0 49.0467V55.7402C0 57.3502 1.30667 58.6569 2.91667 58.6569H8.75V48.4486C8.75 45.6457 9.75753 43.294 11.3704 41.3107ZM58.6296 41.3107C60.2425 43.294 61.25 45.6457 61.25 48.4486V58.6569H67.0833C68.6933 58.6569 70 57.3502 70 55.7402V49.0467C70 45.2084 63.2408 42.0224 58.6296 41.3107Z" fill="black"/>
</svg>
