<svg width="461" height="330" viewBox="0 0 461 330" fill="none" xmlns="http://www.w3.org/2000/svg">
<path d="M469.521 116.303C470.576 85.7672 463.899 55.4603 450.108 28.1959C440.751 17.0087 427.766 9.45906 413.415 6.86258C354.055 1.47645 294.45 -0.731148 234.855 0.249244C175.477 -0.775646 116.086 1.36071 56.9347 6.64925C45.2402 8.77653 34.4178 14.2619 25.7881 22.4359C6.58807 40.1426 4.45474 70.4359 2.32141 96.0359C-0.773802 142.064 -0.773802 188.248 2.32141 234.276C2.93858 248.685 5.08394 262.987 8.72141 276.943C11.2937 287.717 16.4979 297.686 23.8681 305.956C32.5565 314.563 43.6309 320.36 55.6547 322.596C101.648 328.273 147.99 330.626 194.321 329.636C268.988 330.703 334.481 329.636 411.921 323.663C424.24 321.564 435.627 315.76 444.561 307.023C450.534 301.047 454.995 293.734 457.575 285.689C465.204 262.278 468.951 237.777 468.668 213.156C469.521 201.209 469.521 129.103 469.521 116.303ZM186.641 225.956V93.9026L312.935 160.249C277.521 179.876 230.801 202.063 186.641 225.956Z" fill="#FF0000"/>
</svg>
